<svg xmlns="http://www.w3.org/2000/svg" xmlns:xlink="http://www.w3.org/1999/xlink" version="1.1" width="512" height="512" x="0" y="0" viewBox="0 0 24 24" style="enable-background:new 0 0 512 512" xml:space="preserve"><g><path d="M16 18a9.86 9.86 0 0 1-4.45-1.11 7.51 7.51 0 0 0-7.1 0l-.9-1.78a9.48 9.48 0 0 1 8.9 0 7.51 7.51 0 0 0 7.1 0l.9 1.78A9.86 9.86 0 0 1 16 18zM16 10a9.86 9.86 0 0 1-4.45-1.11 7.51 7.51 0 0 0-7.1 0l-.9-1.78a9.48 9.48 0 0 1 8.9 0 7.51 7.51 0 0 0 7.1 0l.9 1.78A9.86 9.86 0 0 1 16 10z" data-original="#000000"/></g></svg>