<svg xmlns="http://www.w3.org/2000/svg" xmlns:xlink="http://www.w3.org/1999/xlink" version="1.1" width="512" height="512" x="0" y="0" viewBox="0 0 32 32" style="enable-background:new 0 0 512 512" xml:space="preserve"><g><path d="M11 20.26V5.5a3.5 3.5 0 0 0-7 0v14.76a5.5 5.5 0 1 0 7 0ZM7.5 4A1.502 1.502 0 0 1 9 5.5V17H6V5.5A1.502 1.502 0 0 1 7.5 4Zm0 24a3.5 3.5 0 0 1-1.943-6.41.999.999 0 0 0 .443-.83V19h3v1.76a.999.999 0 0 0 .443.83A3.5 3.5 0 0 1 7.5 28ZM24.293 24.293 23 25.586V12a1 1 0 0 0-2 0v13.586l-1.293-1.293a1 1 0 0 0-1.414 1.414l3 3a1 1 0 0 0 1.414 0l3-3a1 1 0 0 0-1.414-1.414ZM18.383 17.924A1 1 0 0 0 19 17V4a1 1 0 0 0-2 0v10.586l-1.293-1.293a1 1 0 0 0-1.414 1.414l3 3a1 1 0 0 0 1.09.217Z"  data-original="#000000"/><path d="M29.707 16.293a1 1 0 0 0-1.414 0L27 17.586V8a1 1 0 0 0-2 0v12a1 1 0 0 0 1.707.707l3-3a1 1 0 0 0 0-1.414Z" data-original="#000000"/></g></svg>